<?xml version="1.0" encoding="UTF-8" standalone="no"?>
<svg
   version="1.1"
   width="1024"
   height="1024"
   id="svg64"
   sodipodi:docname="Diagseg.svg"
   inkscape:version="1.2.2 (b0a8486541, 2022-12-01)"
   xmlns:inkscape="http://www.inkscape.org/namespaces/inkscape"
   xmlns:sodipodi="http://sodipodi.sourceforge.net/DTD/sodipodi-0.dtd"
   xmlns="http://www.w3.org/2000/svg"
   xmlns:svg="http://www.w3.org/2000/svg">
  <defs
     id="defs68" />
  <sodipodi:namedview
     id="namedview66"
     pagecolor="#ffffff"
     bordercolor="#000000"
     borderopacity="0.25"
     inkscape:showpageshadow="2"
     inkscape:pageopacity="0.0"
     inkscape:pagecheckerboard="0"
     inkscape:deskcolor="#d1d1d1"
     showgrid="false"
     inkscape:zoom="0.40917969"
     inkscape:cx="-106.31026"
     inkscape:cy="696.51551"
     inkscape:window-width="1920"
     inkscape:window-height="1008"
     inkscape:window-x="0"
     inkscape:window-y="0"
     inkscape:window-maximized="1"
     inkscape:current-layer="svg64" />
  <path
     d="m 528.91058,16.208132 c 1.51227,0.552239 3.02454,1.104479 4.58263,1.673454 2.49974,0.922245 2.49974,0.922245 5.04996,1.863123 3.76539,1.374955 7.53132,2.748552 11.29771,4.121086 1.02752,0.375083 2.05503,0.750166 3.11369,1.136615 14.53978,5.302407 29.1216,10.501769 43.69828,15.713786 2.93453,1.049797 5.86905,2.099626 8.80355,3.149486 22.43941,8.026762 44.88168,16.046434 67.33815,24.030937 2.86253,1.017964 5.72473,2.036773 8.58639,3.056866 13.03846,4.646943 26.13214,9.10537 39.30124,13.413084 8.31788,2.74694 16.42075,5.849888 24.52484,9.114874 4.78407,1.826585 9.6025,3.365078 14.51485,4.859108 6.99341,2.127729 13.62771,4.554249 20.27681,7.492349 3.56484,1.54824 3.56484,1.54824 7.45221,2.72771 9.9509,3.21365 16.26621,7.74349 23.83955,14.54778 4.92378,4.28528 10.07716,8.1328 15.38826,11.97949 7.62131,5.54624 15.08928,11.21553 22.41948,17.09838 7.08619,5.68586 14.26081,11.23625 21.56492,16.67328 6.00043,4.52293 11.91855,9.13689 17.84511,13.74482 9.46847,7.35425 19.02248,14.58436 28.7116,21.67998 7.30442,5.35527 14.49067,10.83162 21.57512,16.44302 3.86695,3.01137 3.86695,3.01137 7.9549,5.1366 3.76325,2.08693 6.17135,3.70296 8.91625,6.90193 2.0445,13.6348 -0.665,28.3211 -2.2369,41.92526 -0.236,2.11174 -0.4709,4.22358 -0.7049,6.3355 -0.4949,4.44862 -0.9963,8.89653 -1.5032,13.34395 -0.7928,6.95701 -1.57068,13.91544 -2.34586,20.8742 -0.77358,6.93885 -1.54782,13.87763 -2.32734,20.81589 -1.97885,17.61385 -3.89867,35.23269 -5.76108,52.85775 -0.25171,2.37261 -0.50344,4.74521 -0.75519,7.11781 -1.13537,10.72299 -2.25194,21.4476 -3.34792,32.17421 -0.10475,1.02421 -0.2096,2.04842 -0.31756,3.10367 -0.47371,4.63367 -0.94459,9.26756 -1.40883,13.90208 -0.86019,8.4824 -1.76481,16.9566 -2.76434,25.42542 -2.55302,21.72014 -4.8136,43.45319 -6.93488,65.21391 -0.97085,9.91097 -1.96521,19.81988 -2.95875,29.72885 -0.8491,8.4881 -1.68339,16.97706 -2.48641,25.46913 -8.59254,90.56162 -8.59254,90.56162 -25.45651,123.99695 -1.46594,2.97748 -2.6891,5.98276 -3.86892,9.06933 -2.35426,6.02714 -5.22297,11.7192 -8.31305,17.44081 -0.56348,1.04542 -1.12696,2.09084 -1.70754,3.16794 -15.0809,27.72877 -33.14988,52.67103 -55.09516,75.99471 -1.12801,1.22746 -2.25603,2.45493 -3.41823,3.7196 -16.61979,17.80508 -34.53225,34.70143 -54.49038,49.18144 -2.11321,1.58985 -4.2243,3.18221 -6.33375,4.77644 -37.07247,27.81498 -77.8004,50.58996 -119.1349,72.30794 -1.07073,0.5626 -2.14145,1.12518 -3.24464,1.70483 -17.87618,9.3242 -36.3347,17.53588 -54.84628,25.67615 -3.33528,1.46908 -6.66731,2.94452 -9.99929,4.42017 -6.29368,2.78438 -12.59768,5.54733 -18.90799,8.29826 -2.5053,1.09504 -5.00788,2.19559 -7.50759,3.30189 -3.54162,1.56527 -7.09338,3.10824 -10.64835,4.64656 -1.04768,0.4684 -2.09537,0.93682 -3.1748,1.41946 -8.29039,3.5444 -16.67664,5.9945 -25.849,4.1747 -1.05946,-0.4471 -2.11892,-0.8943 -3.21048,-1.355 -1.22857,-0.5027 -2.45716,-1.0053 -3.72296,-1.5233 -1.24102,-0.5416 -2.48204,-1.0833 -3.76067,-1.64131 -1.79621,-0.74233 -1.79621,-0.74233 -3.62871,-1.49966 -4.14007,-1.72606 -8.24818,-3.5101 -12.35647,-5.30191 -1.74049,-0.75085 -3.48098,-1.5017 -5.2742,-2.27531 -16.89092,-7.33354 -33.57736,-15.03845 -50.22156,-22.85269 -1.41369,-0.66366 -2.82738,-1.32731 -4.28391,-2.01109 -60.16537,-28.30087 -117.83169,-61.14655 -168.63762,-102.84634 -1.3084,-1.05991 -2.61681,-2.11982 -3.96488,-3.21185 -18.93411,-15.63003 -36.96616,-32.41078 -52.33514,-51.20066 -1.89109,-2.21821 -1.89109,-2.21821 -3.82037,-4.48123 -17.51121,-20.66868 -31.87234,-42.95811 -44.43681,-66.55732 -1.13216,-2.07501 -1.13216,-2.07501 -2.28719,-4.19194 -10.7703,-20.83156 -17.41544,-43.63031 -22.28125,-66.25029 -0.87798,-4.89934 -0.87798,-4.89934 -2.77729,-8.15361 -0.39758,-2.79745 -0.71155,-5.60554 -0.98652,-8.41597 -0.17923,-1.79093 -0.35845,-3.58185 -0.54312,-5.42704 -0.19194,-1.97636 -0.38387,-3.95272 -0.58161,-5.98898 -0.31729,-3.18599 -0.63723,-6.37175 -0.95738,-9.55748 -0.22777,-2.26682 -0.45485,-4.5337 -0.68132,-6.80063 -1.33846,-13.37126 -2.76559,-26.73407 -4.19238,-40.09722 -0.27288,-2.56121 -0.54568,-5.12242 -0.81843,-7.68364 -0.69276,-6.50371 -1.38646,-13.00731 -2.08042,-19.51091 -0.83572,-7.83408 -1.67022,-15.66827 -2.50491,-23.50245 -0.67992,-6.38097 -1.36017,-12.76189 -2.04121,-19.14274 -1.22802,-11.50722 -2.45328,-23.01468 -3.66698,-34.52323 -2.134142,-20.21992 -4.334192,-40.42786 -6.783422,-60.61627 -2.92334,-24.17123 -5.5397,-48.36357 -7.94233,-72.58544 -0.13269,-1.33507 -0.26539,-2.67014 -0.40211,-4.04567 -1.08162,-10.88939 -1.08162,-10.88939 -1.6086,-16.28301 -1.43194,-14.62954 -3.04056,-29.1503 -5.37159,-43.67952 -0.92946,-6.38651 -1.3166,-12.7439 -1.56537,-19.18106 -0.27206,-8.67329 -0.27206,-8.67329 -2.31234,-17.09837 -0.66604,-5.07756 -0.66604,-5.07756 0,-10.58021 3.01059,-3.25174 5.45241,-5.40688 9.04823,-7.93516 1.41597,-1.05851 1.41597,-1.05851 2.86056,-2.13841 2.9767,-2.21508 5.98695,-4.38457 9.00266,-6.55248 1.81642,-1.33714 3.630332,-2.6773 5.441492,-4.02072 2.73034,-2.02338 5.46315,-4.04312 8.20702,-6.05026 7.62808,-5.58545 15.09817,-11.33773 22.54437,-17.13527 8.35556,-6.50557 16.76849,-12.91791 25.33501,-19.17662 8.29039,-6.05991 16.35608,-12.32544 24.34301,-18.7342 6.41168,-5.13927 12.93554,-10.12058 19.54087,-15.03746 5.75879,-4.3152 11.4295,-8.7297 17.10364,-13.1426 2.2581,-1.70093 2.2581,-1.70093 4.56182,-3.4362 0.94488,-0.73101 1.88977,-1.46201 2.8633,-2.21516 7.96419,-5.93838 15.90264,-9.63976 25.38724,-12.99389 1.40484,-0.51304 2.80967,-1.02606 4.25706,-1.55464 10.10478,-3.64908 20.29188,-6.964337 30.62885,-9.987957 6.85299,-2.233615 13.47298,-4.84968 20.15428,-7.497879 8.4979,-3.322378 17.09283,-6.401416 25.69004,-9.488308 1.82498,-0.656842 3.64997,-1.313684 5.53025,-1.990435 5.25961,-1.890836 10.5211,-3.776978 15.78333,-5.661327 1.35663,-0.486848 2.71325,-0.973695 4.11097,-1.475296 10.49553,-3.761463 20.99485,-7.445951 31.67977,-10.710839 6.01503,-1.845831 11.83952,-3.885278 17.6566,-6.222958 13.24456,-5.23428 26.65103,-10.068167 40.05094,-14.937461 25.43671,-9.21139 25.43671,-9.21139 50.70144,-18.828286 1.68165,-0.644908 3.3633,-1.289818 5.09591,-1.954269 1.70239,-0.664392 3.40477,-1.328784 5.15874,-2.013309 7.48398,-2.018404 13.32731,0.218994 20.39619,2.822176 z"
     fill="#2767a8"
     id="path4"
     style="stroke-width:1.55926" />
  <path
     d="m 516.52584,71.039832 c 0,17.956127 0,35.912258 0,54.412508 -7.96244,2.24452 -7.96244,2.24452 -16.08572,4.53438 -8.101,5.43707 -12.26583,9.39251 -16.08574,18.1375 -0.57212,4.06269 -0.95914,7.83718 -1.10589,11.90274 -0.0549,1.04042 -0.10983,2.08085 -0.16651,3.1528 -0.1313,2.53796 -0.23645,5.07711 -0.33616,7.61633 -3.98122,0.74818 -3.98122,0.74818 -8.04287,1.51146 -0.0793,8.98534 -0.13784,17.9705 -0.17672,26.95606 -0.0162,3.05837 -0.0381,6.11672 -0.066,9.17503 -0.039,4.38953 -0.0572,8.77877 -0.0715,13.16844 -0.0167,1.37297 -0.0332,2.74593 -0.0503,4.16051 -3.7e-4,1.90607 -3.7e-4,1.90607 -7.4e-4,3.85066 -0.007,1.12102 -0.0143,2.24205 -0.0216,3.39704 0.13458,3.15032 0.13458,3.15032 3.60402,5.79643 12.7399,0.49878 25.47979,0.99757 38.60574,1.51146 0,28.92932 0,57.85864 0,87.6646 -8.04286,-7.5573 -8.04286,-7.5573 -11.55533,-10.89904 -19.04583,-17.18262 -40.42523,-24.28999 -66.57079,-24.34643 -2.4507,-0.0228 -2.4507,-0.0228 -4.95092,-0.046 -5.3525,-0.0464 -10.70487,-0.0723 -16.05752,-0.0978 -3.73003,-0.0283 -7.46006,-0.0579 -11.19008,-0.0887 -9.78166,-0.0774 -19.56336,-0.13737 -29.34517,-0.19368 -9.99591,-0.0606 -19.99166,-0.13782 -29.98745,-0.21356 -19.58658,-0.14602 -39.17323,-0.27214 -58.76002,-0.38968 0,16.45978 0,32.91957 0,49.87813 4.69957,-0.0396 9.39915,-0.0791 14.24113,-0.11993 15.5565,-0.12542 31.11302,-0.20878 46.66993,-0.27162 9.4289,-0.0394 18.85721,-0.0927 28.28577,-0.17857 9.1053,-0.0823 18.21003,-0.12735 27.31572,-0.14689 3.46761,-0.014 6.9352,-0.0411 10.40257,-0.082 4.87087,-0.0551 9.73942,-0.0624 14.61058,-0.0589 1.42201,-0.0271 2.84401,-0.0543 4.3091,-0.0823 12.11355,0.0935 21.05482,4.09397 30.04625,11.6681 0.84808,0.98002 1.69617,1.96005 2.56995,2.96977 0.87711,0.98393 1.75422,1.96785 2.65791,2.98159 7.49965,9.81878 7.24745,21.51933 5.48549,33.19896 -4.17891,11.70517 -12.6697,18.62546 -24.12859,24.18333 -4.63209,1.45082 -7.50604,1.69516 -12.31367,1.68305 -1.51326,-1.2e-4 -3.02652,-2.3e-4 -4.58564,-3.5e-4 -1.62881,-0.008 -3.25763,-0.0156 -4.93581,-0.0236 -2.50688,-0.003 -2.50688,-0.003 -5.06441,-0.007 -5.34312,-0.009 -10.68615,-0.0274 -16.02924,-0.0466 -3.62034,-0.008 -7.24067,-0.0145 -10.86101,-0.0206 -8.87969,-0.0154 -17.75914,-0.045 -26.63884,-0.0738 0,16.95857 0,33.91713 0,51.3896 16.45569,0 32.9114,0 49.86575,0 -0.53084,1.49634 -1.06166,2.99268 -1.60857,4.53437 -0.90428,7.31289 -0.73548,12.31313 3.01607,18.89323 3.43436,3.7965 4.65985,5.10047 9.83365,5.59712 7.75173,0.1469 13.14047,0.0867 19.32172,-4.84139 1.06166,-1.99513 2.12332,-3.99025 3.21715,-6.04583 20.70233,0 41.40464,0 62.73432,0 0,11.97075 0,23.94149 0,36.27501 -9.53517,0.1734 -19.06415,0.32387 -28.59968,0.41513 -3.24406,0.038 -6.48797,0.0896 -9.73155,0.15498 -4.65996,0.0916 -9.318,0.13451 -13.97879,0.1679 -1.45289,0.0391 -2.90577,0.078 -4.40269,0.1182 -3.78668,10e-4 -7.1595,-0.0465 -10.84734,-0.85621 -3.17394,-3.70301 -3.17394,-3.70301 -4.82571,-7.55731 -6.45642,-4.09404 -13.38743,-4.0455 -20.91144,-3.02291 -5.07434,2.73906 -7.34161,4.85352 -10.15412,9.63555 -1.97327,7.07948 -2.09318,11.28403 1.60858,17.8541 4.99646,5.70991 8.65587,8.35058 16.48786,9.44662 6.26991,-0.84162 9.65529,-3.02795 14.5777,-6.7071 1.06165,-1.49635 2.1233,-2.99269 3.21713,-4.53437 2.95172,-0.54528 2.95172,-0.54528 6.56704,-0.51477 1.37126,5.5e-4 2.74253,0.001 4.15534,0.001 1.44229,0.0232 2.88457,0.0464 4.37056,0.0703 1.32487,0.004 2.64974,0.009 4.01476,0.0138 4.958,0.0238 9.91572,0.087 14.8734,0.14557 11.08105,0.0935 22.16211,0.18705 33.57895,0.2834 0,25.43784 0,50.87569 0,77.08439 -9.02409,0.99756 -18.04819,1.99512 -27.34573,3.02291 -8.92754,2.07524 -8.92754,2.07524 -17.6943,4.53438 0.81283,1.49244 1.62567,2.98489 2.46312,4.52257 1.05597,1.95606 2.11159,3.91232 3.16689,5.8687 0.53704,0.98393 1.07409,1.96786 1.62741,2.98159 4.00259,7.44511 4.00259,7.44511 4.00259,10.81047 0.91443,-0.21821 1.82887,-0.43643 2.77102,-0.66126 7.88195,-1.78043 14.86622,-2.68552 22.96614,-2.36166 0,5.4866 0,10.97319 0,16.62604 2.65414,0 5.30829,0 8.04286,0 0,49.87814 0,99.75627 0,151.14586 -2.65415,0.49878 -5.30828,0.99756 -8.04286,1.51145 0,5.4866 0,10.9732 0,16.62606 -25.37098,-2.20734 -44.74157,-11.86923 -62.73432,-28.71772 -1.53961,-1.39405 -1.53961,-1.39405 -3.11033,-2.81627 -15.12871,-14.78523 -22.50557,-34.57255 -24.2354,-54.61916 5.30829,0 10.61657,0 16.08572,0 0,-4.98781 0,-9.97561 0,-15.11458 -5.30829,0 -10.61658,0 -16.08572,0 0.77197,-8.99461 2.40957,-16.78019 5.59229,-25.29922 0.99083,-4.02277 1.10827,-5.71801 -0.76658,-9.46432 -3.94658,-3.32295 -3.94658,-3.32295 -8.74661,-6.32924 -1.59042,-1.05016 -3.18083,-2.10033 -4.81944,-3.18232 -3.88829,-2.54483 -3.88829,-2.54483 -7.3454,-4.09157 -0.59717,1.73015 -0.59717,1.73015 -1.20642,3.49524 -1.12428,3.11638 -2.27911,6.22465 -3.54388,9.29311 -12.56946,30.76045 -11.18064,61.9085 2.47136,92.07979 9.92612,20.7674 24.18761,37.69011 44.10183,50.81209 1.42868,0.943 2.85735,1.88601 4.32933,2.8576 9.52664,5.72697 19.35273,9.47105 30.0539,12.72932 1.19334,0.36665 2.38667,0.73331 3.61615,1.11107 11.55194,3.29479 22.0537,4.31844 34.38638,5.97388 0,28.92932 0,57.85864 0,87.6646 -7.18608,-1.12537 -11.30896,-1.89291 -17.56863,-4.60523 -2.24273,-0.96553 -2.24273,-0.96553 -4.53078,-1.95057 -1.59858,-0.70458 -3.19716,-1.40916 -4.84418,-2.13509 -1.68877,-0.7377 -3.37755,-1.4754 -5.11751,-2.23545 -56.3305,-24.77859 -111.35942,-52.39219 -160.88748,-87.97382 -3.07521,-2.20813 -6.1673,-4.39311 -9.26656,-6.57131 -9.53052,-6.73737 -18.62257,-13.78453 -27.396,-21.37887 -3.26451,-2.818 -6.59218,-5.5349 -9.96561,-8.23627 -14.31278,-11.76759 -27.09247,-24.58716 -38.70628,-38.73112 -0.68815,-0.83342 -1.37631,-1.66682 -2.08532,-2.52549 -41.24064,-50.26305 -57.29168,-103.81952 -63.62884,-166.18857 -0.57871,-5.6679 -1.1711,-11.33454 -1.76301,-17.00124 -0.25064,-2.40067 -0.50127,-4.80136 -0.75188,-7.20203 -0.12717,-1.21807 -0.25436,-2.43613 -0.38539,-3.69111 -0.39647,-3.80274 -0.79141,-7.60562 -1.18602,-11.40853 -2.17704,-20.96128 -4.41366,-41.91673 -6.66956,-62.87065 -0.17569,-1.63199 -0.35139,-3.26398 -0.53241,-4.94542 -0.89012,-8.26567 -1.78106,-16.53125 -2.67251,-24.79679 -1.35895,-12.60025 -2.71567,-25.20071 -4.07123,-37.80129 -0.64375,-5.98387 -1.28872,-11.96763 -1.93458,-17.95129 -1.55671,-14.43673 -3.09346,-28.87498 -4.59174,-43.31718 -0.43,-4.1223 -0.86044,-8.24455 -1.29099,-12.3668 -0.39346,-3.78804 -0.77984,-7.57668 -1.16592,-11.36539 -1.17653,-11.36085 -2.59262,-22.6086 -4.71585,-33.85494 -0.82316,-4.50425 -1.32636,-8.98846 -1.69559,-13.54442 -0.13477,-1.64636 -0.26956,-3.29273 -0.40842,-4.98899 -0.12649,-1.65416 -0.25298,-3.30832 -0.38329,-5.01261 -0.13893,-1.66585 -0.27786,-3.33171 -0.421,-5.04804 -0.38195,-4.80218 -0.6873,-9.60473 -0.98651,-14.41199 -0.13815,-1.41281 -0.27629,-2.82561 -0.41863,-4.28124 -0.46671,-7.11061 -0.47518,-9.78814 4.42749,-15.52123 1.77527,-1.31855 3.592,-2.58893 5.44151,-3.81407 0.9524,-0.69033 1.90481,-1.38066 2.88608,-2.09191 1.92839,-1.39385 3.87221,-2.76908 5.83147,-4.12441 3.79146,-2.63647 7.43217,-5.4374 11.088,-8.23701 2.57915,-1.9223 5.15955,-3.84313 7.74125,-5.76242 2.68219,-2.01384 5.36313,-4.02913 8.04286,-6.04585 4.00015,-3.00809 8.00142,-6.01478 12.00775,-9.0156 8.31416,-6.2325 16.56974,-12.52759 24.79463,-18.86372 3.76072,-2.89509 7.52768,-5.78288 11.29771,-8.66727 1.09548,-0.83828 2.19097,-1.67656 3.31964,-2.54025 2.24929,-1.716 4.50272,-3.42722 6.76025,-5.13364 4.64566,-3.51536 9.21748,-7.03075 13.64027,-10.79423 10.76644,-9.01158 22.46636,-12.46295 35.95254,-16.52199 4.39374,-1.38321 8.62067,-3.05948 12.87014,-4.79194 8.71873,-3.51101 17.58072,-6.48439 26.5603,-9.3433 8.33485,-2.68882 16.41819,-5.82413 24.53858,-9.03701 9.23334,-3.59377 18.58126,-6.90597 27.92224,-10.24294 2.26632,-0.81214 4.53255,-1.62445 6.79873,-2.43692 15.38878,-5.51283 30.78942,-10.9963 46.18981,-16.48043 3.19419,-1.137499 6.38833,-2.275131 9.58246,-3.412798 9.62436,-3.42777 19.24906,-6.854704 28.87567,-10.276907 3.06763,-1.09075 6.13501,-2.182191 9.20225,-3.273911 3.80843,-1.355435 7.61735,-2.709631 11.42682,-4.062466 1.69294,-0.602851 3.38588,-1.205714 5.13012,-1.826842 1.48531,-0.528098 2.97063,-1.056196 4.50094,-1.600297 7.66314,-2.823376 7.66314,-2.823376 13.21221,-2.823376 z"
     fill="#263678"
     id="path6"
     style="stroke-width:1.55926" />
  <path
     d="m 528.91058,16.208132 c 1.51227,0.552239 3.02454,1.104479 4.58263,1.673454 2.49974,0.922245 2.49974,0.922245 5.04996,1.863123 3.76539,1.374955 7.53132,2.748552 11.29771,4.121086 1.02752,0.375083 2.05503,0.750166 3.11369,1.136615 14.53978,5.302407 29.1216,10.501769 43.69828,15.713786 2.93453,1.049797 5.86905,2.099626 8.80355,3.149486 22.43941,8.026762 44.88168,16.046434 67.33815,24.030937 2.86253,1.017964 5.72473,2.036773 8.58639,3.056866 13.03846,4.646943 26.13214,9.10537 39.30124,13.413084 8.31788,2.74694 16.42075,5.849888 24.52484,9.114874 4.78407,1.826585 9.6025,3.365078 14.51485,4.859108 6.99341,2.127729 13.62771,4.554249 20.27681,7.492349 3.56484,1.54824 3.56484,1.54824 7.45221,2.72771 9.9509,3.21365 16.26621,7.74349 23.83955,14.54778 4.92378,4.28528 10.07716,8.1328 15.38826,11.97949 7.62131,5.54624 15.08928,11.21553 22.41948,17.09838 7.08619,5.68586 14.26081,11.23625 21.56492,16.67328 6.00043,4.52293 11.91855,9.13689 17.84511,13.74482 9.46847,7.35425 19.02248,14.58436 28.7116,21.67998 7.30442,5.35527 14.49067,10.83162 21.57512,16.44302 3.86695,3.01137 3.86695,3.01137 7.9549,5.1366 3.76325,2.08693 6.17135,3.70296 8.91625,6.90193 2.0445,13.6348 -0.665,28.3211 -2.2369,41.92526 -0.236,2.11174 -0.4709,4.22358 -0.7049,6.3355 -0.4949,4.44862 -0.9963,8.89653 -1.5032,13.34395 -0.7928,6.95701 -1.57068,13.91544 -2.34586,20.8742 -0.77358,6.93885 -1.54782,13.87763 -2.32734,20.81589 -1.97885,17.61385 -3.89867,35.23269 -5.76108,52.85775 -0.25171,2.37261 -0.50344,4.74521 -0.75519,7.11781 -1.13537,10.72299 -2.25194,21.4476 -3.34792,32.17421 -0.10475,1.02421 -0.2096,2.04842 -0.31756,3.10367 -0.47371,4.63367 -0.94459,9.26756 -1.40883,13.90208 -0.86019,8.4824 -1.76481,16.9566 -2.76434,25.42542 -2.55302,21.72014 -4.8136,43.45319 -6.93488,65.21391 -0.97085,9.91097 -1.96521,19.81988 -2.95875,29.72885 -0.8491,8.4881 -1.68339,16.97706 -2.48641,25.46913 -8.59254,90.56162 -8.59254,90.56162 -25.45651,123.99695 -1.46594,2.97748 -2.6891,5.98276 -3.86892,9.06933 -2.35426,6.02714 -5.22297,11.7192 -8.31305,17.44081 -0.56348,1.04542 -1.12696,2.09084 -1.70754,3.16794 -15.0809,27.72877 -33.14988,52.67103 -55.09516,75.99471 -1.12801,1.22746 -2.25603,2.45493 -3.41823,3.7196 -16.61979,17.80508 -34.53225,34.70143 -54.49038,49.18144 -2.11321,1.58985 -4.2243,3.18221 -6.33375,4.77644 -37.07247,27.81498 -77.8004,50.58996 -119.1349,72.30794 -1.07073,0.5626 -2.14145,1.12518 -3.24464,1.70483 -17.87618,9.3242 -36.3347,17.53588 -54.84628,25.67615 -3.33528,1.46908 -6.66731,2.94452 -9.99929,4.42017 -6.29368,2.78438 -12.59768,5.54733 -18.90799,8.29826 -2.5053,1.09504 -5.00788,2.19559 -7.50759,3.30189 -3.54162,1.56527 -7.09338,3.10824 -10.64835,4.64656 -1.04768,0.4684 -2.09537,0.93682 -3.1748,1.41946 -8.29039,3.5444 -16.67664,5.9945 -25.849,4.1747 -1.05946,-0.4471 -2.11892,-0.8943 -3.21048,-1.355 -1.22857,-0.5027 -2.45716,-1.0053 -3.72296,-1.5233 -1.24102,-0.5416 -2.48204,-1.0833 -3.76067,-1.64131 -1.79621,-0.74233 -1.79621,-0.74233 -3.62871,-1.49966 -4.14007,-1.72606 -8.24818,-3.5101 -12.35647,-5.30191 -1.74049,-0.75085 -3.48098,-1.5017 -5.2742,-2.27531 -16.89092,-7.33354 -33.57736,-15.03845 -50.22156,-22.85269 -1.41369,-0.66366 -2.82738,-1.32731 -4.28391,-2.01109 -60.16537,-28.30087 -117.83169,-61.14655 -168.63762,-102.84634 -1.3084,-1.05991 -2.61681,-2.11982 -3.96488,-3.21185 -18.93411,-15.63003 -36.96616,-32.41078 -52.33514,-51.20066 -1.89109,-2.21821 -1.89109,-2.21821 -3.82037,-4.48123 -17.51121,-20.66868 -31.87234,-42.95811 -44.43681,-66.55732 -1.13216,-2.07501 -1.13216,-2.07501 -2.28719,-4.19194 -10.7703,-20.83156 -17.41544,-43.63031 -22.28125,-66.25029 -0.87798,-4.89934 -0.87798,-4.89934 -2.77729,-8.15361 -0.39758,-2.79745 -0.71155,-5.60554 -0.98652,-8.41597 -0.17923,-1.79093 -0.35845,-3.58185 -0.54312,-5.42704 -0.19194,-1.97636 -0.38387,-3.95272 -0.58161,-5.98898 -0.31729,-3.18599 -0.63723,-6.37175 -0.95738,-9.55748 -0.22777,-2.26682 -0.45485,-4.5337 -0.68132,-6.80063 -1.33846,-13.37126 -2.76559,-26.73407 -4.19238,-40.09722 -0.27288,-2.56121 -0.54568,-5.12242 -0.81843,-7.68364 -0.69276,-6.50371 -1.38646,-13.00731 -2.08042,-19.51091 -0.83572,-7.83408 -1.67022,-15.66827 -2.50491,-23.50245 -0.67992,-6.38097 -1.36017,-12.76189 -2.04121,-19.14274 -1.22802,-11.50722 -2.45328,-23.01468 -3.66698,-34.52323 -2.134142,-20.21992 -4.334192,-40.42786 -6.783422,-60.61627 -2.92334,-24.17123 -5.5397,-48.36357 -7.94233,-72.58544 -0.13269,-1.33507 -0.26539,-2.67014 -0.40211,-4.04567 -1.08162,-10.88939 -1.08162,-10.88939 -1.6086,-16.28301 -1.43194,-14.62954 -3.04056,-29.1503 -5.37159,-43.67952 -0.92946,-6.38651 -1.3166,-12.7439 -1.56537,-19.18106 -0.27206,-8.67329 -0.27206,-8.67329 -2.31234,-17.09837 -0.66604,-5.07756 -0.66604,-5.07756 0,-10.58021 3.01059,-3.25174 5.45241,-5.40688 9.04823,-7.93516 1.41597,-1.05851 1.41597,-1.05851 2.86056,-2.13841 2.9767,-2.21508 5.98695,-4.38457 9.00266,-6.55248 1.81642,-1.33714 3.630332,-2.6773 5.441492,-4.02072 2.73034,-2.02338 5.46315,-4.04312 8.20702,-6.05026 7.62808,-5.58545 15.09817,-11.33773 22.54437,-17.13527 8.35556,-6.50557 16.76849,-12.91791 25.33501,-19.17662 8.29039,-6.05991 16.35608,-12.32544 24.34301,-18.7342 6.41168,-5.13927 12.93554,-10.12058 19.54087,-15.03746 5.75879,-4.3152 11.4295,-8.7297 17.10364,-13.1426 2.2581,-1.70093 2.2581,-1.70093 4.56182,-3.4362 0.94488,-0.73101 1.88977,-1.46201 2.8633,-2.21516 7.96419,-5.93838 15.90264,-9.63976 25.38724,-12.99389 1.40484,-0.51304 2.80967,-1.02606 4.25706,-1.55464 10.10478,-3.64908 20.29188,-6.964337 30.62885,-9.987957 6.85299,-2.233615 13.47298,-4.84968 20.15428,-7.497879 8.4979,-3.322378 17.09283,-6.401416 25.69004,-9.488308 1.82498,-0.656842 3.64997,-1.313684 5.53025,-1.990435 5.25961,-1.890836 10.5211,-3.776978 15.78333,-5.661327 1.35663,-0.486848 2.71325,-0.973695 4.11097,-1.475296 10.49553,-3.761463 20.99485,-7.445951 31.67977,-10.710839 6.01503,-1.845831 11.83952,-3.885278 17.6566,-6.222958 13.24456,-5.23428 26.65103,-10.068167 40.05094,-14.937461 25.43671,-9.21139 25.43671,-9.21139 50.70144,-18.828286 1.68165,-0.644908 3.3633,-1.289818 5.09591,-1.954269 1.70239,-0.664392 3.40477,-1.328784 5.15874,-2.013309 7.48398,-2.018404 13.32731,0.218994 20.39619,2.822176 z m -20.59294,55.548683 c -1.37898,0.492945 -2.75795,0.985888 -4.17872,1.49377 -1.51297,0.54663 -3.02596,1.093261 -4.58478,1.656455 -1.58542,0.568125 -3.17084,1.136244 -4.80432,1.72159 -5.2431,1.879772 -10.48341,3.766317 -15.72383,5.652671 -5.47354,1.96401 -10.94782,3.92619 -16.42215,5.88827 -3.75464,1.345828 -7.50904,2.692225 -11.2632,4.039169 -20.41621,7.323066 -40.8618,14.57255 -61.30948,21.81757 -28.23802,9.91568 -28.23802,9.91568 -56.27936,20.30585 -9.20558,3.49401 -18.54556,6.64917 -27.8869,9.80603 -7.68382,2.6242 -15.12746,5.54714 -22.57067,8.72262 -3.87665,1.57207 -7.81933,2.6715 -11.87461,3.76537 -9.2481,3.09745 -15.03576,8.15396 -22.01106,14.51235 -4.96901,4.50836 -10.31898,8.45792 -15.79039,12.41049 -7.62968,5.53892 -15.09225,11.20951 -22.41947,17.09837 -6.85053,5.5012 -13.79144,10.84134 -20.94287,15.9943 -11.138,8.05189 -22.03617,16.40832 -32.82493,24.86822 -4.44243,3.34765 -4.44243,3.34765 -9.13619,6.36466 -1.47014,0.96833 -2.94029,1.93668 -4.45499,2.93435 -1.3333,0.82416 -2.66659,1.64832 -4.04029,2.49745 -4.66742,5.86971 -3.42833,11.67682 -2.89668,18.75744 0.0828,1.45068 0.16562,2.90135 0.25095,4.396 0.29448,4.74317 0.66726,9.4767 1.05601,14.21383 0.11296,1.54019 0.22603,3.08037 0.34245,4.66723 0.82993,10.26244 2.20644,20.35702 3.82939,30.53064 2.59161,16.67904 4.44687,33.38826 6.15822,50.16411 0.32243,3.10241 0.64561,6.20475 0.96949,9.30701 0.68159,6.53958 1.35898,13.07952 2.03279,19.6198 1.58836,15.41323 3.19902,30.82441 4.81,46.23555 0.35904,3.43498 0.71784,6.86998 1.07637,10.305 3.58691,34.35354 7.35985,68.68694 11.25149,103.01108 0.41463,3.66814 0.82883,7.33633 1.24256,11.00457 0.1967,1.74106 0.39341,3.48214 0.59608,5.27596 1.08444,9.70816 2.10312,19.42 3.05424,29.14035 0.16015,1.6326 0.16015,1.6326 0.32353,3.2982 0.51481,5.26285 1.02211,10.52621 1.5173,15.79072 3.58548,37.17217 15.00346,69.71661 33.87489,102.52333 0.86881,1.54116 1.73763,3.08232 2.63278,4.67018 20.86785,35.37037 52.21256,67.1312 85.83871,92.06318 2.68225,2.10827 5.36317,4.21806 8.04286,6.32923 21.35863,16.36319 43.79922,31.09169 67.31105,44.58138 3.10416,1.78258 6.19305,3.58593 9.27836,5.39712 32.70741,19.018 67.37593,35.26085 101.96211,51.00582 1.47948,0.67609 2.95896,1.35216 4.48328,2.04874 3.98672,1.80498 7.98941,3.57135 12.00459,5.31962 1.13942,0.51412 2.27884,1.02825 3.45278,1.55795 7.0949,3.00518 11.17598,3.31182 18.66509,1.6539 3.2287,-1.23192 6.40847,-2.58114 9.53834,-4.02072 1.79595,-0.81928 3.59191,-1.63857 5.44228,-2.48269 1.89082,-0.87773 3.78164,-1.75547 5.72976,-2.65981 1.97858,-0.90911 3.95763,-1.81736 5.9371,-2.72476 5.6023,-2.57251 11.19355,-5.16577 16.78399,-7.76098 2.38756,-1.10044 4.77525,-2.20064 7.16317,-3.30041 5.02193,-2.32482 10.01919,-4.69243 15.00574,-7.08349 2.64588,-1.26633 5.29548,-2.5258 7.94705,-3.7816 106.38088,-50.46031 211.10217,-121.79299 250.91921,-231.86571 5.54633,-16.73006 8.23854,-33.22682 10.02846,-50.60433 0.27654,-2.58113 0.55435,-5.16214 0.83331,-7.74305 0.75038,-6.97513 1.48326,-13.9518 2.21298,-20.92887 0.7795,-7.42298 1.57549,-14.8444 2.36967,-22.266 1.32878,-12.43674 2.64789,-24.87435 3.95978,-37.31267 1.73002,-16.40145 3.47616,-32.80136 5.22916,-49.20066 2.71052,-25.35704 5.40655,-50.71541 8.09384,-76.07464 2.12704,-20.06739 4.27194,-40.13305 6.42909,-60.1976 0.91155,-8.48295 1.82063,-16.96613 2.72975,-25.44931 0.8583,-8.0061 1.72063,-16.01179 2.58591,-24.01721 0.52838,-4.89788 1.0528,-9.79614 1.57609,-14.69451 0.24209,-2.25821 0.48583,-4.51626 0.7314,-6.77414 0.33481,-3.08046 0.6637,-6.16142 0.99116,-9.24257 0.27742,-2.57645 0.27742,-2.57645 0.56044,-5.20495 0.38294,-4.6661 0.67721,-9.15988 0.39112,-13.83441 -3.05697,-3.47994 -3.05697,-3.47994 -7.43965,-6.32922 -1.62359,-1.16708 -3.24718,-2.33415 -4.91997,-3.53658 -1.30906,-0.9144 -1.30906,-0.9144 -2.64456,-1.84726 -4.54849,-3.19574 -8.98864,-6.5203 -13.44744,-9.82522 -0.93751,-0.68912 -1.87501,-1.37823 -2.84092,-2.08822 -8.43958,-6.20719 -16.74795,-12.56006 -25.0507,-18.92755 -7.06604,-5.40932 -14.18978,-10.74129 -21.37092,-16.01497 -11.39018,-8.37185 -22.7815,-16.76057 -33.57266,-25.81286 -15.89244,-13.2379 -31.75411,-19.55197 -51.88274,-25.68299 -9.30207,-2.89433 -18.26716,-6.3682 -27.23892,-10.06065 -9.64428,-3.96037 -19.04755,-7.55593 -29.18678,-10.20234 -6.3105,-1.84599 -12.29031,-4.38773 -18.36036,-6.83108 -4.81556,-1.84794 -9.64081,-3.41854 -14.59025,-4.91816 -6.34054,-1.92953 -12.46991,-4.05909 -18.59912,-6.51815 -9.749,-3.91038 -19.6538,-7.34275 -29.6176,-10.732619 -6.43679,-2.196841 -12.82532,-4.46511 -19.17367,-6.879418 -10.07319,-3.818901 -20.30078,-7.216715 -30.53459,-10.63335 -8.41105,-2.839624 -16.58968,-5.898432 -24.68114,-9.470232 -4.93477,-1.913517 -7.87755,-0.608035 -12.67929,1.118464 z"
     fill="#67b8e1"
     id="path8"
     style="stroke-width:1.55926" />
  <path
     d="m 516.52584,13.604408 c 0,12.968315 0,25.936629 0,39.297922 -5.03873,1.784702 -10.07746,3.569404 -15.26887,5.408188 -4.92484,1.74554 -9.84945,3.491599 -14.77406,5.237705 -3.40071,1.205475 -6.80165,2.410419 -10.2028,3.614807 -4.91217,1.73956 -9.82354,3.481076 -14.73478,5.222945 -1.50032,0.530838 -3.00065,1.061676 -4.54644,1.608601 -8.51657,3.022975 -16.99179,6.126838 -25.43388,9.329153 -5.16066,1.939263 -10.3634,3.754791 -15.57495,5.570208 -9.14715,3.200608 -18.25694,6.480455 -27.34573,9.824479 -16.17476,5.942934 -32.44044,11.655214 -48.71272,17.357414 -3.7286,1.31088 -7.45437,2.62887 -11.17832,3.95135 -9.82295,3.48578 -19.65044,6.93721 -29.56523,10.18668 -4.35502,1.43051 -8.69861,2.89039 -13.04152,4.35299 -2.18388,0.72743 -4.37274,1.44179 -6.56624,2.1432 -16.78513,5.38749 -28.28812,12.16993 -41.33749,23.50583 -2.79947,2.19037 -5.61233,4.36581 -8.445,6.51817 -1.43489,1.10083 -2.8698,2.20165 -4.34817,3.33583 -7.04291,5.3875 -14.09203,10.7678 -21.14236,16.1467 -6.12411,4.67321 -12.24039,9.35502 -18.34307,14.05295 -14.35789,11.04925 -28.73833,22.07499 -43.23039,32.96868 -1.21717,0.94107 -2.43434,1.88213 -3.6884,2.8517 -3.75124,2.72181 -3.75124,2.72181 -8.35703,5.39639 -4.68179,2.89017 -7.98745,5.29693 -11.47993,9.41709 -0.5687,4.67008 -0.5687,4.67008 0.23955,9.73075 0.21037,1.88118 0.42074,3.76235 0.63748,5.70053 0.36211,2.83592 0.36211,2.83592 0.73154,5.72914 0.33653,3.31932 0.66739,6.63916 0.992,9.95954 0.36567,3.4151 0.73468,6.8299 1.10667,10.24441 0.29836,2.77874 0.29836,2.77874 0.60273,5.61364 0.52942,4.92858 1.06146,9.85692 1.59465,14.78516 0.99509,9.20791 1.98139,18.41668 2.96766,27.62543 0.10706,0.99843 0.21406,1.99687 0.32434,3.02555 1.64449,15.35106 3.20175,30.70717 4.67731,46.07323 1.57217,16.25202 3.52796,32.44462 5.63168,48.64177 2.95523,22.86883 5.25312,45.79066 7.55087,68.72478 2.22605,22.19812 4.59276,44.36827 7.32759,66.51625 1.47153,11.92947 2.80684,23.84803 3.80066,35.82187 1.92411,23.0822 4.30573,45.47398 10.77619,67.91231 0.7887,2.74562 1.50649,5.50906 2.21179,8.27465 2.61449,9.99408 6.83118,18.87274 11.56161,28.1273 1.08016,2.22825 2.15643,4.45819 3.22972,6.68938 7.40278,15.25527 15.41581,29.49863 25.72458,43.18875 0.71071,0.95177 1.42142,1.90355 2.15367,2.88416 11.94397,15.85418 25.24225,30.08564 39.66921,43.97105 0.90718,0.88334 1.81436,1.76668 2.74903,2.67679 11.32984,11.01985 22.99362,21.12282 35.85671,30.5753 2.37941,1.82075 2.37941,1.82075 4.80687,3.67828 23.63445,17.99438 48.84443,34.60297 75.25574,48.79472 4.35157,2.35543 8.6723,4.75814 12.99581,7.15877 21.86698,12.07722 44.02137,23.2427 66.83038,33.66241 3.73011,1.71794 7.43483,3.47241 11.12884,5.25764 13.66167,6.59229 27.5654,12.43603 41.73295,18.01166 1.38578,0.54615 2.77155,1.0923 4.19932,1.65501 1.24297,0.48502 2.48594,0.97004 3.76656,1.46977 2.87509,1.22841 2.87509,1.22841 4.48367,2.73987 0.14072,2.91209 0.17208,5.82897 0.15708,8.74403 -0.005,1.76814 -0.0104,3.53629 -0.0157,5.35801 -0.0135,1.86166 -0.0269,3.72331 -0.0408,5.64139 -0.007,1.86751 -0.0146,3.73502 -0.022,5.65912 -0.0191,4.63187 -0.0455,9.26359 -0.0785,13.89539 -7.32315,-1.2537 -13.86704,-3.5398 -20.71038,-6.23478 -1.0658,-0.40915 -2.1316,-0.81831 -3.22971,-1.23987 -22.79772,-8.88589 -44.87712,-19.38481 -66.94426,-29.74503 -1.41369,-0.66366 -2.82738,-1.32731 -4.28391,-2.01109 -60.16538,-28.30087 -117.8317,-61.14655 -168.63763,-102.84634 -1.3084,-1.05991 -2.61681,-2.11982 -3.96488,-3.21185 -18.93411,-15.63003 -36.96616,-32.41078 -52.33515,-51.20066 -1.89108,-2.21821 -1.89108,-2.21821 -3.82036,-4.48123 -17.51128,-20.66868 -31.87241,-42.95811 -44.43688,-66.55732 -1.13216,-2.07501 -1.13216,-2.07501 -2.28719,-4.19194 -10.7703,-20.83156 -17.41544,-43.63031 -22.28125,-66.25029 -0.87798,-4.89934 -0.87798,-4.89934 -2.77729,-8.15361 -0.39758,-2.79745 -0.71155,-5.60554 -0.98652,-8.41597 -0.17923,-1.79093 -0.35845,-3.58185 -0.54312,-5.42704 -0.19194,-1.97636 -0.38387,-3.95272 -0.58161,-5.98898 -0.31729,-3.18599 -0.63723,-6.37175 -0.95738,-9.55748 -0.22777,-2.26682 -0.45485,-4.5337 -0.68132,-6.80063 -1.33846,-13.37126 -2.76559,-26.73407 -4.19238,-40.09722 -0.27288,-2.56121 -0.54568,-5.12242 -0.81843,-7.68364 -0.69276,-6.50371 -1.38646,-13.00731 -2.08042,-19.51091 -0.83572,-7.83408 -1.67022,-15.66827 -2.50491,-23.50245 -0.67992,-6.38097 -1.36017,-12.76189 -2.04121,-19.14274 -1.22802,-11.50722 -2.45328,-23.01468 -3.66698,-34.52323 -2.134142,-20.21992 -4.334192,-40.42786 -6.783422,-60.61627 -2.92334,-24.17123 -5.5397,-48.36357 -7.94233,-72.58544 -0.13269,-1.33507 -0.26539,-2.67014 -0.40211,-4.04567 -1.08162,-10.88939 -1.08162,-10.88939 -1.6086,-16.28301 -1.43194,-14.62954 -3.04056,-29.1503 -5.37159,-43.67952 -0.92946,-6.38651 -1.3166,-12.7439 -1.56537,-19.18106 -0.27206,-8.67329 -0.27206,-8.67329 -2.31234,-17.09837 -0.66604,-5.07756 -0.66604,-5.07756 0,-10.58021 3.01059,-3.25174 5.45241,-5.40688 9.04823,-7.93516 1.41597,-1.05851 1.41597,-1.05851 2.86056,-2.13841 2.9767,-2.21508 5.98695,-4.38457 9.00266,-6.55248 1.81642,-1.33714 3.630332,-2.6773 5.441492,-4.02072 2.73034,-2.02338 5.46315,-4.04312 8.20702,-6.05026 7.62808,-5.58545 15.09817,-11.33773 22.54437,-17.13527 8.35556,-6.50557 16.76849,-12.91791 25.33501,-19.17662 8.29039,-6.05991 16.35608,-12.32544 24.34301,-18.7342 6.41168,-5.13927 12.93554,-10.12058 19.54087,-15.03746 5.75879,-4.3152 11.4295,-8.7297 17.10364,-13.1426 2.2581,-1.70093 2.2581,-1.70093 4.56182,-3.4362 0.94488,-0.73101 1.88977,-1.46201 2.8633,-2.21516 7.96419,-5.93838 15.90264,-9.63976 25.38724,-12.99389 1.40484,-0.51304 2.80967,-1.02606 4.25706,-1.55464 10.10478,-3.64908 20.29188,-6.964337 30.62885,-9.987957 6.85299,-2.233615 13.47298,-4.84968 20.15428,-7.497879 8.4979,-3.322378 17.09283,-6.401416 25.69004,-9.488308 1.82498,-0.656842 3.64997,-1.313684 5.53025,-1.990435 5.25961,-1.890836 10.5211,-3.776978 15.78333,-5.661327 1.35663,-0.486848 2.71325,-0.973695 4.11097,-1.475296 10.49553,-3.761463 20.99485,-7.445951 31.67977,-10.710839 6.01503,-1.845831 11.83952,-3.885278 17.6566,-6.222958 13.24456,-5.23428 26.65103,-10.068167 40.05094,-14.937461 5.06495,-1.842931 10.12936,-3.687179 15.19346,-5.532174 1.80363,-0.65682 1.80363,-0.65682 3.64369,-1.326909 7.63103,-2.78253 15.24142,-5.609442 22.83571,-8.479491 4.18756,-1.577901 8.39045,-3.109129 12.61645,-4.593785 1.42246,-0.506575 2.84491,-1.013149 4.31048,-1.535075 3.93346,-1.109978 3.93346,-1.109978 10.36775,-1.109978 z"
     fill="#4380b9"
     id="path10"
     style="stroke-width:1.55926" />
  <path
     d="m 555.88559,65.808768 c 11.41596,4.437834 23.0088,8.457364 34.56468,12.560313 4.97022,1.766012 9.93803,3.537915 14.90521,5.311503 19.32555,6.898397 38.65953,13.775326 58.00511,20.623996 7.7115,2.73086 15.42035,5.46801 23.12411,8.21807 3.1113,1.11005 6.22267,2.21992 9.33412,3.32957 1.54146,0.54976 3.08291,1.09953 4.67109,1.66595 9.10075,3.23642 18.22297,6.40905 27.372,9.52293 5.69757,1.94415 11.38266,3.91934 17.06638,5.89897 2.63979,0.91046 5.28521,1.80666 7.93663,2.68676 18.24769,6.06431 31.08701,13.66703 45.16108,26.10051 2.82927,2.22599 5.67472,4.43412 8.54554,6.61264 1.42661,1.09108 2.8532,2.18217 4.32304,3.30631 1.59249,1.21578 3.18498,2.43156 4.82571,3.68418 2.01097,1.54266 4.02167,3.08563 6.03216,4.62884 10.2176,7.83317 20.46509,15.61932 30.86448,23.23866 9.6466,7.06887 19.13029,14.31368 28.4854,21.72095 5.49577,4.3258 10.98497,8.42068 16.96305,12.14518 1.57693,1.02289 1.57693,1.02289 3.18573,2.06644 1.9496,1.24903 3.94039,2.44409 5.9756,3.5661 3.14054,2.05586 4.76498,3.52509 6.61651,6.69529 1.05773,7.11911 0.56989,14.0116 0,21.16042 -0.13596,1.83682 -0.2719,3.67364 -0.41196,5.56612 -0.48939,5.77399 -1.0793,11.53184 -1.6993,17.29469 -0.22065,2.12345 -0.44054,4.24697 -0.65976,6.37056 -1.57801,15.16417 -3.30369,30.31347 -5.0696,45.45926 -1.55249,13.41324 -2.91272,26.83926 -4.22367,40.27468 -1.39923,14.31216 -2.89143,28.60707 -4.62465,42.88763 -2.20473,18.25165 -4.24347,36.51707 -6.23322,54.79038 -0.24837,2.27333 -0.24837,2.27333 -0.50175,4.59259 -2.20858,20.25332 -4.32088,40.51411 -6.35429,60.78352 -0.36454,3.6281 -0.73089,7.25605 -1.09792,10.88394 -0.18246,1.80372 -0.18246,1.80372 -0.36862,3.64388 -0.24616,2.43272 -0.49239,4.86544 -0.73872,7.29814 -0.60258,5.96113 -1.19955,11.92266 -1.7838,17.88539 -7.37848,75.24564 -7.37848,75.24564 -19.31563,105.47761 -0.44764,1.15975 -0.89526,2.31952 -1.35645,3.51443 -14.14078,36.26098 -35.01368,68.18171 -62.37774,96.93483 -2.02525,2.12813 -4.02944,4.27393 -6.03136,6.42148 -12.75464,13.56548 -26.10062,26.36766 -41.21339,37.62115 -3.39332,2.54663 -6.69692,5.11541 -9.97817,7.78165 -14.19751,11.39374 -29.30365,21.28296 -44.82639,30.9908 -1.00717,0.63134 -2.01435,1.26269 -3.05205,1.91317 -19.12129,11.9547 -38.65874,23.28067 -58.77744,33.70058 -1.79311,0.929 -1.79311,0.929 -3.62244,1.87677 -3.87998,1.99915 -7.76766,3.98433 -11.659,5.96391 -1.325,0.67536 -2.65,1.35071 -4.01515,2.04652 -26.03417,13.19462 -52.72726,25.01587 -79.55077,36.70785 -5.83737,2.53265 -5.83737,2.53265 -11.44236,5.48163 -6.1634,2.19209 -11.70211,-0.01 -17.58786,-2.18712 -2.50887,-1.10745 -2.50887,-1.10745 -5.06842,-2.2373 -1.86865,-0.81928 -3.73732,-1.63857 -5.6626,-2.48268 -1.98758,-0.88601 -3.97486,-1.77263 -5.96185,-2.65981 -2.05508,-0.90881 -4.11044,-1.81706 -6.16606,-2.72476 -13.2729,-5.8759 -26.50322,-11.82398 -39.54709,-18.13825 -2.64527,-1.27771 -5.29501,-2.54728 -7.94703,-3.81259 -34.70687,-16.56215 -68.13209,-34.52623 -100.15955,-55.33725 -0.97664,-0.63199 -1.95329,-1.264 -2.95953,-1.91515 -25.82403,-16.78686 -50.14283,-34.92967 -72.64337,-55.52027 -1.45564,-1.3093 -1.45564,-1.3093 -2.94068,-2.64505 -12.95605,-11.65361 -24.64525,-23.72659 -35.35403,-37.25214 -1.7673,-2.23136 -3.56381,-4.44222 -5.36295,-6.651 -14.41336,-18.02204 -25.65948,-37.3631 -35.40274,-57.91587 -1.15862,-2.41295 -2.38134,-4.79858 -3.61771,-7.17722 -5.11245,-10.32663 -8.02098,-21.11864 -10.9207,-32.13621 -0.40253,-1.50316 -0.80506,-3.00632 -1.21978,-4.55504 -3.49813,-13.91221 -5.05573,-27.91561 -6.52148,-42.11124 -0.29919,-2.83966 -0.59858,-5.6793 -0.89815,-8.51893 -0.81592,-7.78543 -1.61605,-15.57224 -2.41324,-23.35939 -2.58787,-25.23727 -5.27015,-50.45695 -8.33014,-75.6476 -2.94904,-24.32605 -5.51195,-48.68708 -8.06348,-73.05241 -1.5378,-14.65993 -3.11748,-29.31109 -4.87846,-43.9489 -1.33694,-11.15721 -2.51753,-22.3277 -3.68769,-33.50126 -1.97143,-18.82287 -3.99172,-37.64012 -6.10579,-56.44935 -0.27707,-2.47081 -0.27707,-2.47081 -0.55975,-4.99153 -0.90844,-8.09658 -1.82233,-16.19257 -2.74419,-24.28781 -0.33362,-2.96558 -0.66704,-5.93117 -1.00025,-8.89679 -0.15551,-1.34828 -0.31101,-2.69654 -0.47124,-4.08567 -1.56853,-14.05498 -1.56853,-14.05498 -1.06193,-19.61353 3.23169,-3.33655 6.11818,-5.85448 9.8525,-8.59643 1.51881,-1.167 1.51881,-1.167 3.06831,-2.35758 3.17491,-2.42539 6.38171,-4.80824 9.59921,-7.18349 1.96265,-1.46409 3.9252,-2.92832 5.88762,-4.39268 3.7549,-2.78905 7.52446,-5.55943 11.30399,-8.31893 7.79366,-5.70164 15.40188,-11.61422 23.0227,-17.51757 13.30267,-10.25115 26.65073,-20.44933 40.00696,-30.63876 3.50499,-2.67475 7.0088,-5.35087 10.51226,-8.0274 1.15355,-0.88115 2.30709,-1.7623 3.49558,-2.67016 2.20123,-1.68148 4.40229,-3.36317 6.60317,-5.04507 1.00321,-0.7662 2.00641,-1.53239 3.04003,-2.32181 0.87231,-0.66646 1.74463,-1.33292 2.64337,-2.01958 0.9462,-0.71882 1.89238,-1.43764 2.86724,-2.17825 1.21095,-0.99672 2.4219,-1.99342 3.66955,-3.02034 5.00358,-3.46152 9.68164,-5.25989 15.51393,-7.26467 1.07011,-0.37251 2.14022,-0.74503 3.24274,-1.12884 3.41092,-1.18403 6.829,-2.34835 10.2479,-3.51181 2.22593,-0.76818 4.45133,-1.53768 6.67621,-2.30851 4.46472,-1.54535 8.93232,-3.08301 13.40189,-4.61593 6.82627,-2.34661 13.6298,-4.74839 20.43155,-7.15692 8.67646,-3.0691 17.37775,-6.04351 26.14557,-8.87391 9.32469,-3.04826 18.41913,-6.4052 27.49654,-10.06065 6.18163,-2.357882 12.44695,-4.42021 18.74993,-6.470934 9.50755,-3.096399 18.82241,-6.431642 28.075,-10.159533 4.66044,-1.837408 9.3455,-3.565876 14.06833,-5.256163 8.7565,-3.149162 17.49582,-6.337014 26.22728,-9.546984 2.54162,-0.932952 5.08329,-1.865805 7.625,-2.798559 3.90819,-1.434345 7.81589,-2.869807 11.72224,-4.308542 3.83768,-1.412991 7.67727,-2.82133 11.51724,-4.228838 1.16786,-0.43135 2.33573,-0.862699 3.53899,-1.30712 21.16386,-7.739984 37.94706,0.165372 58.03288,8.191341 z m -47.56795,5.948047 c -1.37898,0.492945 -2.75795,0.985888 -4.17872,1.49377 -1.51297,0.54663 -3.02596,1.093261 -4.58478,1.656455 -1.58542,0.568125 -3.17084,1.136244 -4.80432,1.72159 -5.2431,1.879772 -10.48341,3.766317 -15.72383,5.652671 -5.47354,1.96401 -10.94782,3.92619 -16.42215,5.88827 -3.75464,1.345828 -7.50904,2.692225 -11.2632,4.039169 -20.41621,7.323066 -40.8618,14.57255 -61.30948,21.81757 -28.23802,9.91568 -28.23802,9.91568 -56.27936,20.30585 -9.20558,3.49401 -18.54556,6.64917 -27.8869,9.80603 -7.68382,2.6242 -15.12746,5.54714 -22.57067,8.72262 -3.87665,1.57207 -7.81933,2.6715 -11.87461,3.76537 -9.2481,3.09745 -15.03576,8.15396 -22.01106,14.51235 -4.96901,4.50836 -10.31898,8.45792 -15.79039,12.41049 -7.62968,5.53892 -15.09225,11.20951 -22.41947,17.09837 -6.85053,5.5012 -13.79144,10.84134 -20.94287,15.9943 -11.138,8.05189 -22.03617,16.40832 -32.82493,24.86822 -4.44243,3.34765 -4.44243,3.34765 -9.13619,6.36466 -1.47014,0.96833 -2.94029,1.93668 -4.45499,2.93435 -1.3333,0.82416 -2.66659,1.64832 -4.04029,2.49745 -4.66742,5.86971 -3.42833,11.67682 -2.89668,18.75744 0.0828,1.45068 0.16562,2.90135 0.25095,4.396 0.29448,4.74317 0.66726,9.4767 1.05601,14.21383 0.11296,1.54019 0.22603,3.08037 0.34245,4.66723 0.82993,10.26244 2.20644,20.35702 3.82939,30.53064 2.59161,16.67904 4.44687,33.38826 6.15822,50.16411 0.32243,3.10241 0.64561,6.20475 0.96949,9.30701 0.68159,6.53958 1.35898,13.07952 2.03279,19.6198 1.58836,15.41323 3.19902,30.82441 4.81,46.23555 0.35904,3.43498 0.71784,6.86998 1.07637,10.305 3.58691,34.35354 7.35985,68.68694 11.25149,103.01108 0.41463,3.66814 0.82883,7.33633 1.24256,11.00457 0.1967,1.74106 0.39341,3.48214 0.59608,5.27596 1.08444,9.70816 2.10312,19.42 3.05424,29.14035 0.16015,1.6326 0.16015,1.6326 0.32353,3.2982 0.51481,5.26285 1.02211,10.52621 1.5173,15.79072 3.58548,37.17217 15.00346,69.71661 33.87489,102.52333 0.86881,1.54116 1.73763,3.08232 2.63278,4.67018 20.86785,35.37037 52.21256,67.1312 85.83871,92.06318 2.68225,2.10827 5.36317,4.21806 8.04286,6.32923 21.35863,16.36319 43.79922,31.09169 67.31105,44.58138 3.10416,1.78258 6.19305,3.58593 9.27836,5.39712 32.70741,19.018 67.37593,35.26085 101.96211,51.00582 1.47948,0.67609 2.95896,1.35216 4.48328,2.04874 3.98672,1.80498 7.98941,3.57135 12.00459,5.31962 1.13942,0.51412 2.27884,1.02825 3.45278,1.55795 7.0949,3.00518 11.17598,3.31182 18.66509,1.6539 3.2287,-1.23192 6.40847,-2.58114 9.53834,-4.02072 1.79595,-0.81928 3.59191,-1.63857 5.44228,-2.48269 1.89082,-0.87773 3.78164,-1.75547 5.72976,-2.65981 1.97858,-0.90911 3.95763,-1.81736 5.9371,-2.72476 5.6023,-2.57251 11.19355,-5.16577 16.78399,-7.76098 2.38756,-1.10044 4.77525,-2.20064 7.16317,-3.30041 5.02193,-2.32482 10.01919,-4.69243 15.00574,-7.08349 2.64588,-1.26633 5.29548,-2.5258 7.94705,-3.7816 106.38088,-50.46031 211.10217,-121.79299 250.91921,-231.86571 5.54633,-16.73006 8.23854,-33.22682 10.02846,-50.60433 0.27654,-2.58113 0.55435,-5.16214 0.83331,-7.74305 0.75038,-6.97513 1.48326,-13.9518 2.21298,-20.92887 0.7795,-7.42298 1.57549,-14.8444 2.36967,-22.266 1.32878,-12.43674 2.64789,-24.87435 3.95978,-37.31267 1.73002,-16.40145 3.47616,-32.80136 5.22916,-49.20066 2.71052,-25.35704 5.40655,-50.71541 8.09384,-76.07464 2.12704,-20.06739 4.27194,-40.13305 6.42909,-60.1976 0.91155,-8.48295 1.82063,-16.96613 2.72975,-25.44931 0.8583,-8.0061 1.72063,-16.01179 2.58591,-24.01721 0.52838,-4.89788 1.0528,-9.79614 1.57609,-14.69451 0.24209,-2.25821 0.48583,-4.51626 0.7314,-6.77414 0.33481,-3.08046 0.6637,-6.16142 0.99116,-9.24257 0.27742,-2.57645 0.27742,-2.57645 0.56044,-5.20495 0.38294,-4.6661 0.67721,-9.15988 0.39112,-13.83441 -3.05697,-3.47994 -3.05697,-3.47994 -7.43965,-6.32922 -1.62359,-1.16708 -3.24718,-2.33415 -4.91997,-3.53658 -1.30906,-0.9144 -1.30906,-0.9144 -2.64456,-1.84726 -4.54849,-3.19574 -8.98864,-6.5203 -13.44744,-9.82522 -0.93751,-0.68912 -1.87501,-1.37823 -2.84092,-2.08822 -8.43958,-6.20719 -16.74795,-12.56006 -25.0507,-18.92755 -7.06604,-5.40932 -14.18978,-10.74129 -21.37092,-16.01497 -11.39018,-8.37185 -22.7815,-16.76057 -33.57266,-25.81286 -15.89244,-13.2379 -31.75411,-19.55197 -51.88274,-25.68299 -9.30207,-2.89433 -18.26716,-6.3682 -27.23892,-10.06065 -9.64428,-3.96037 -19.04755,-7.55593 -29.18678,-10.20234 -6.3105,-1.84599 -12.29031,-4.38773 -18.36036,-6.83108 -4.81556,-1.84794 -9.64081,-3.41854 -14.59025,-4.91816 -6.34054,-1.92953 -12.46991,-4.05909 -18.59912,-6.51815 -9.749,-3.91038 -19.6538,-7.34275 -29.6176,-10.732619 -6.43679,-2.196841 -12.82532,-4.46511 -19.17367,-6.879418 -10.07319,-3.818901 -20.30078,-7.216715 -30.53459,-10.63335 -8.41105,-2.839624 -16.58968,-5.898432 -24.68114,-9.470232 -4.93477,-1.913517 -7.87755,-0.608035 -12.67929,1.118464 z"
     fill="#f7f9fa"
     id="path12"
     style="stroke-width:1.55926" />
  <path
     d="m 595.79211,291.53101 c 1.36232,-0.002 2.72465,-0.004 4.12825,-0.007 1.481,0.006 2.96201,0.0112 4.48788,0.0165 2.35481,-3.2e-4 2.35481,-3.2e-4 4.75719,-6.7e-4 5.18738,10e-4 10.37466,0.0128 15.56204,0.0247 3.59725,0.003 7.19452,0.004 10.79178,0.007 9.46718,0.006 18.9343,0.0206 28.40145,0.0374 9.66086,0.0154 19.32172,0.0223 28.98258,0.03 18.95521,0.0162 37.91037,0.0429 56.86556,0.0738 0,16.45979 0,32.91958 0,49.87814 -4.46436,0.007 -8.92872,0.0124 -13.52835,0.0189 -14.7736,0.026 -29.54675,0.0934 -44.32008,0.18083 -8.95447,0.0518 -17.90852,0.0897 -26.86318,0.096 -8.64675,0.007 -17.29251,0.0495 -25.93897,0.1177 -3.29369,0.0196 -6.58751,0.0261 -9.88126,0.0192 -4.62506,-0.008 -9.24723,0.0321 -13.87193,0.0822 -1.35258,-0.013 -2.70516,-0.0261 -4.09872,-0.0395 -9.81624,0.17771 -16.3055,2.82782 -23.96333,8.5935 -7.69195,7.78354 -8.62772,14.08671 -8.48271,24.40179 0.78576,7.71018 3.52246,13.47747 9.58232,18.77515 8.00785,5.67971 14.37591,6.88739 24.3921,6.8916 2.84477,0.009 2.84477,0.009 5.74701,0.0174 2.04751,10e-4 4.09501,0.003 6.20457,0.004 3.23947,0.0206 6.47895,0.0413 9.7184,0.0645 7.96679,0.0571 15.93317,0.10477 23.90022,0.10153 5.55673,-0.001 11.11205,0.0347 16.66842,0.0935 3.10449,0.0231 6.20923,0.008 9.31376,-0.009 23.61198,0.30165 45.87042,9.17082 62.50619,25.13676 19.21905,21.64066 22.6177,45.31964 20.60983,72.64448 -3.51433,19.75327 -15.48003,37.5117 -32.17145,49.87814 -3.88753,2.42058 -7.87503,4.60129 -11.96376,6.70709 -0.95902,0.49914 -1.91803,0.9983 -2.90611,1.51256 -13.2757,6.41336 -27.38628,7.34742 -42.08443,7.23811 -1.58697,4.4e-4 -3.17394,8.8e-4 -4.809,0.001 -5.18725,-0.002 -10.3741,-0.0256 -15.56127,-0.0493 -3.61954,-0.006 -7.23907,-0.0101 -10.8586,-0.0129 -9.48296,-0.0115 -18.96575,-0.0412 -28.44864,-0.0746 -9.69405,-0.031 -19.38813,-0.0447 -29.08223,-0.0599 -18.98878,-0.0324 -37.97739,-0.0855 -56.96608,-0.1476 0,-16.95857 0,-33.91713 0,-51.3896 7.13509,-0.009 7.13509,-0.009 14.41432,-0.0188 15.73665,-0.026 31.47288,-0.0934 47.20927,-0.18084 9.53872,-0.0518 19.07702,-0.0897 28.6159,-0.096 9.20994,-0.007 18.41895,-0.0495 27.6286,-0.11771 3.5092,-0.0196 7.01852,-0.0261 10.52778,-0.0192 4.92547,0.008 9.84822,-0.0321 14.77336,-0.0822 1.44282,0.0131 2.88565,0.0261 4.37219,0.0395 10.03395,-0.17077 16.81535,-2.54081 24.57583,-8.59349 7.05401,-7.95377 7.51972,-15.21887 7.15689,-25.44682 -1.42761,-9.44828 -5.89753,-14.72919 -13.69172,-20.5582 -6.97173,-3.48447 -12.40781,-4.0618 -20.27013,-4.0875 -1.83211,-0.0112 -3.66421,-0.0213 -5.55183,-0.0322 -1.97714,-0.007 -3.95428,-0.0126 -5.99133,-0.0191 -4.2089,-0.0351 -8.41779,-0.0715 -12.62666,-0.10923 -6.61769,-0.0548 -13.23514,-0.0999 -19.85307,-0.1177 -4.31637,-0.0124 -8.632,-0.0407 -12.94812,-0.086 -4.04983,-0.0421 -8.1,-0.0621 -12.15006,-0.0561 -24.38691,-0.32372 -45.41062,-7.94941 -63.32264,-23.54853 -3.11661,-3.02291 -3.11661,-3.02291 -4.82572,-6.04583 1.00748,-6.45246 3.18672,-12.54559 5.27812,-18.74563 2.60143,-8.83425 3.05827,-17.30816 3.06635,-26.40919 0.0196,-1.15538 0.0394,-2.31076 0.0597,-3.50115 0.0305,-11.27418 -2.92308,-20.97997 -6.79559,-31.64026 -0.53082,-1.46907 -1.06166,-2.93814 -1.60857,-4.45172 -0.53083,-1.46127 -1.06167,-2.92254 -1.60857,-4.4281 -1.07462,-3.02221 -2.14763,-6.04494 -3.21715,-9.06875 15.53818,-17.10103 34.37074,-33.46406 59.9634,-33.43384 z"
     fill="#fcfcfd"
     id="path14"
     style="stroke-width:1.55926" />
  <path
     d="m 288.10856,291.71276 c 21.56207,-0.0684 43.12406,-0.1238 64.68623,-0.15661 10.01288,-0.0157 20.02566,-0.0371 30.0385,-0.0714 9.66844,-0.0329 19.33682,-0.0509 29.00533,-0.0588 3.68305,-0.006 7.36608,-0.0164 11.04908,-0.0328 5.17078,-0.0221 10.3412,-0.025 15.51202,-0.0235 1.51226,-0.0112 3.0245,-0.0218 4.58258,-0.0329 24.67484,0.0719 45.59992,8.95058 63.23862,25.0613 10.5994,11.04274 16.97646,23.14472 21.56493,37.28461 0.57437,1.64442 1.14873,3.28884 1.74052,4.98309 5.95265,22.56351 0.92341,48.2254 -11.58047,68.03335 -16.08259,21.6015 -37.1667,35.5398 -64.75397,41.20511 -7.60792,1.16886 -15.19168,1.01725 -22.8818,0.9445 -2.59351,-0.007 -2.59351,-0.007 -5.23943,-0.0129 -5.47344,-0.0169 -10.94644,-0.0548 -16.41975,-0.0933 -3.73134,-0.0152 -7.46268,-0.029 -11.19403,-0.0413 -9.10402,-0.0306 -18.20711,-0.0898 -27.31117,-0.1476 0,-16.95856 0,-33.91713 0,-51.38959 7.90645,-0.0321 7.90645,-0.0321 15.97262,-0.0649 5.14843,-0.0464 10.29654,-0.10543 15.44481,-0.16568 3.55686,-0.0349 7.11389,-0.0568 10.67093,-0.0649 5.13628,-0.0142 10.26984,-0.0763 15.40554,-0.14723 1.57069,0.006 3.14139,0.0119 4.75968,0.018 11.24543,-0.22075 20.0653,-2.66053 29.43505,-8.64395 3.43753,-3.38332 5.50094,-6.47506 8.04286,-10.58021 0.58266,-0.86313 1.16533,-1.72625 1.76566,-2.61553 3.76323,-8.89366 3.25105,-22.68602 -0.0126,-31.62255 -5.99016,-9.42911 -15.12478,-16.0576 -25.88168,-20.17443 -5.19134,-0.6578 -10.33378,-0.6614 -15.56655,-0.65352 -1.53897,-0.0154 -3.07793,-0.0308 -4.66353,-0.0466 -5.0655,-0.0455 -10.13052,-0.0596 -15.19621,-0.0733 -3.52056,-0.0254 -7.04109,-0.0529 -10.56161,-0.0822 -9.25021,-0.0717 -18.50036,-0.11683 -27.75077,-0.15634 -9.44565,-0.0451 -18.89108,-0.11538 -28.33657,-0.18358 -18.52152,-0.13 -37.04303,-0.22947 -55.56486,-0.31587 0,-16.45979 0,-32.91956 0,-49.87814 z"
     fill="#fcfcfd"
     id="path16"
     style="stroke-width:1.55926" />
  <path
     d="m 288.10856,367.28569 c 18.04817,0 36.09636,0 54.69146,0 0,64.84157 0,129.68315 0,196.48961 -18.04818,0 -36.09637,0 -54.69146,0 0,-64.84157 0,-129.68314 0,-196.48961 z"
     fill="#fefefe"
     id="path18"
     style="stroke-width:1.55926" />
  <path
     d="m 533.91852,129.32545 c 7.76702,5.45097 13.28062,11.55276 16.38733,20.31023 0.11215,3.61981 0.1359,7.24242 0.10059,10.8636 -0.0146,1.92304 -0.029,3.84608 -0.0439,5.82738 -0.0187,1.47491 -0.0373,2.94983 -0.0565,4.46943 0.99531,0.18704 1.99061,0.3741 3.01607,0.5668 3.41822,0.94466 3.41822,0.94466 6.63537,3.96758 0.34161,4.50094 0.48893,8.85768 0.48382,13.36105 0.007,1.32691 0.0138,2.65381 0.0209,4.02093 0.009,2.80917 0.0104,5.61838 0.003,8.42757 -0.005,4.30286 0.0326,8.60415 0.0734,12.90681 0.003,2.72672 0.005,5.45345 0.003,8.18018 0.0148,1.28956 0.0296,2.57912 0.0449,3.90777 -0.0745,8.9229 -0.0745,8.9229 -2.60711,12.26059 -3.68276,2.49298 -5.88828,2.50243 -10.4069,2.51453 -2.29484,0.0214 -2.29484,0.0214 -4.63603,0.0433 -1.64886,-0.009 -3.29772,-0.0183 -4.99655,-0.0278 -1.69552,0.004 -3.39103,0.009 -5.13793,0.0132 -3.58591,0.003 -7.17186,-0.006 -10.75772,-0.0242 -5.49714,-0.0242 -10.99237,-2.3e-4 -16.48944,0.0288 -3.48106,-0.003 -6.96211,-0.009 -10.44316,-0.0177 -1.64886,0.009 -3.29772,0.0184 -4.99654,0.0278 -1.5299,-0.0143 -3.05979,-0.0286 -4.63604,-0.0433 -1.34638,-0.003 -2.69277,-0.007 -4.07995,-0.0112 -4.34049,-0.71835 -5.7584,-1.75897 -8.30479,-5.11016 -0.48014,-4.60787 -0.67596,-8.90037 -0.64093,-13.50866 -0.005,-1.32476 -0.009,-2.64953 -0.014,-4.01445 -0.003,-2.80016 0.006,-5.60036 0.0258,-8.40047 0.0258,-4.2896 2.5e-4,-8.57704 -0.0306,-12.86658 0.003,-2.71984 0.009,-5.43969 0.0188,-8.15952 -0.009,-1.28482 -0.0195,-2.56965 -0.0296,-3.89341 0.11366,-8.93109 0.11366,-8.93109 2.8208,-12.25698 2.67544,-1.89264 2.67544,-1.89264 7.50116,-1.89264 -0.13997,-2.24452 -0.13997,-2.24452 -0.28276,-4.53438 -0.8599,-19.57493 -0.8599,-19.57493 5.93161,-27.8439 12.2365,-12.19182 29.1759,-18.69297 45.52386,-9.09237 z"
     fill="#f9fafb"
     id="path20"
     style="stroke-width:1.55926" />
  <path
     d="m 402.31719,680.15761 c 6.59694,2.12206 11.22928,5.09493 16.58841,9.25768 1.42038,1.09498 2.84076,2.18997 4.30418,3.31813 1.60183,1.25669 1.60183,1.25669 3.23601,2.53878 -1.42017,7.00921 -3.17401,13.93626 -4.92626,20.87702 -0.29963,1.19142 -0.59926,2.38284 -0.90796,3.61038 -0.73499,2.92183 -1.47165,5.84329 -2.20864,8.76468 5.30828,0 10.61657,0 16.08572,0 0,4.98782 0,9.97562 0,15.11458 -5.30829,0 -10.61659,0 -16.08572,0 6.35796,28.57186 17.85811,51.70665 43.43145,69.43264 14.7069,8.94426 29.51659,13.57262 46.6486,16.72051 0,-5.4866 0,-10.97319 0,-16.62606 5.83912,0 11.67823,0 17.69429,0 0,4.98782 0,9.97563 0,15.1146 9.55492,-1.99513 19.10984,-3.99026 28.95431,-6.04584 3.58309,5.51776 3.58309,5.51776 7.23856,11.147 0.75582,1.15611 1.51162,2.31222 2.29034,3.50338 4.94824,7.68562 4.94824,7.68562 4.94824,11.04442 -3.5487,1.23785 -7.10117,2.46409 -10.65679,3.68417 -1.97816,0.68388 -3.95633,1.36775 -5.99444,2.07236 -29.59689,9.08144 -65.16849,5.33187 -92.85421,-7.27759 -34.80595,-16.79999 -56.41964,-44.91093 -69.30371,-78.98773 -8.4459,-28.79104 -2.98262,-61.0429 11.51762,-87.26311 z"
     fill="#fafafa"
     id="path22"
     style="stroke-width:1.55926" />
  <path
     d="m 597.13039,640.41097 c 25.04859,18.70185 43.19154,46.04641 48.08124,76.02164 0.50793,6.08349 0.61264,12.13132 0.60321,18.23197 -0.002,2.48654 -0.002,2.48654 -0.005,5.02331 -0.26476,17.19808 -3.20824,32.4348 -11.85891,47.78327 -6.67801,-2.17956 -11.74223,-5.29167 -17.39268,-9.25769 -1.56969,-1.09497 -3.13936,-2.18995 -4.75661,-3.31811 -1.18399,-0.8378 -2.36799,-1.6756 -3.58787,-2.53878 0.3297,-0.9508 0.65939,-1.90161 0.99908,-2.88122 2.73234,-8.15668 4.59616,-15.81037 5.43521,-24.32504 -5.30829,0 -10.61657,0 -16.08572,0 0,-5.48658 0,-10.97318 0,-16.62604 5.30829,0 10.61657,0 16.08572,0 -3.16038,-15.87848 -6.17835,-30.28962 -16.08572,-43.83229 -0.94347,-1.29956 -1.88693,-2.59912 -2.85899,-3.93806 -17.51787,-22.24998 -41.88976,-31.10413 -69.52677,-36.87133 0,4.98782 0,9.97563 0,15.11459 -5.83912,0 -11.67824,0 -17.69429,0 0,-4.98781 0,-9.97563 0,-15.11459 -8.49327,0.99757 -16.98653,1.99513 -25.73717,3.02292 -1.8579,-3.42912 -3.7158,-6.85824 -5.62999,-10.39127 -0.58786,-1.07721 -1.17572,-2.15441 -1.78138,-3.26425 -3.84863,-7.16902 -3.84863,-7.16902 -3.84863,-10.52781 2.74385,-0.98633 5.49289,-1.95996 8.24393,-2.92845 1.53028,-0.5436 3.06056,-1.08719 4.63721,-1.64726 38.12535,-11.64501 81.53263,0.72532 112.76344,22.26449 z"
     fill="#fafbfb"
     id="path24"
     style="stroke-width:1.55926" />
  <path
     d="m 799.63457,358.21694 c 5.51659,3.04859 9.98753,6.67743 12.86859,12.09167 0.62563,7.05437 0.72623,10.70065 -2.61394,17.09837 -5.74042,6.10359 -10.52938,8.25083 -19.10179,9.25769 -6.75884,-0.79385 -10.13366,-2.56109 -15.28144,-6.70709 -0.79624,-2.9927 -0.79624,-2.9927 -1.60857,-6.04584 -42.99714,0 -85.99428,0 -130.29437,0 0,-4.98782 0,-9.97562 0,-15.11459 42.99714,0 85.99428,0 130.29437,0 1.06165,-1.99512 2.12332,-3.99025 3.21715,-6.04583 6.72307,-5.93843 13.71388,-6.14612 22.52,-4.53438 z"
     fill="#5fb0dd"
     id="path26"
     style="stroke-width:1.55926" />
  <path
     d="m 653.25449,460.99613 c 6.60774,3.16084 10.0827,5.69419 12.86858,12.09166 1.23908,6.05646 1.41254,11.40866 -2.04842,16.78546 -7.57399,8.41857 -7.57399,8.41857 -13.90535,9.37577 -7.5977,0.40547 -11.98246,-0.12693 -17.92679,-4.81187 -2.77102,-2.44432 -2.77102,-2.44432 -4.72518,-4.72332 0,-0.99756 0,-1.99512 0,-3.02291 -36.62719,0 -73.25439,0 -110.99149,0 0,-4.48903 0,-8.97807 0,-13.60313 36.62719,0 73.25439,0 110.99149,0 1.06166,-2.4939 2.12332,-4.98782 3.21715,-7.55729 6.65435,-5.49473 14.0682,-5.8067 22.52001,-4.53437 z"
     fill="#60b1df"
     id="path28"
     style="stroke-width:1.55926" />
  <path
     d="m 556.74015,766.31075 c 6.63526,-0.0875 13.27036,-0.14139 19.90607,-0.18894 1.89109,-0.0253 3.78216,-0.0507 5.73055,-0.0768 2.70598,-0.0146 2.70598,-0.0146 5.46664,-0.0296 1.6679,-0.0158 3.33581,-0.0317 5.05427,-0.048 4.05677,0.34318 4.05677,0.34318 7.27392,3.3661 0.40215,3.77864 0.40215,3.77864 0,7.55729 -3.21715,3.02291 -3.21715,3.02291 -7.05007,3.31813 -1.45563,-0.035 -2.91127,-0.0702 -4.41101,-0.10633 -1.46392,-0.0272 -2.92785,-0.0546 -4.43614,-0.0827 -1.12387,-0.035 -2.24772,-0.0702 -3.40565,-0.10622 0,0.99757 0,1.99513 0,3.02292 0.9563,0.36422 1.91259,0.72845 2.89786,1.1037 4.24067,2.30141 5.91076,4.6437 8.64491,8.44329 8.97617,11.08162 17.82932,21.31572 33.03071,23.68886 18.26534,1.9512 36.85364,1.11641 55.15801,0.0162 0,3.99025 0,7.98051 0,12.09167 -63.12958,4.4629 -63.12958,4.4629 -77.68274,-5.34914 -5.8055,-5.10589 -10.37042,-10.80854 -14.68608,-17.06369 -4.25838,-5.5089 -9.76933,-9.63814 -15.40553,-13.86218 -0.0771,1.13029 -0.15422,2.2606 -0.23367,3.42514 -0.55177,8.08792 -0.55177,8.08792 -1.3749,11.68945 -4.82571,3.02291 -4.82571,3.02291 -8.1434,2.64505 -3.11661,-1.1336 -3.11661,-1.1336 -6.33375,-4.15651 -0.36523,-3.9506 -0.36523,-3.9506 -0.31418,-8.89163 0.0104,-1.76327 0.0207,-3.52653 0.0315,-5.34323 0.0269,-1.849 0.0539,-3.69801 0.0817,-5.60303 0.0146,-1.86069 0.029,-3.72138 0.0439,-5.63845 0.038,-4.60748 0.091,-9.21439 0.15709,-13.82158 z"
     fill="#f1f4f7"
     id="path30"
     style="stroke-width:1.55926" />
  <path
     d="m 374.97146,633.30239 c 15.68866,-2.95349 35.43103,-6.31157 49.97699,1.87273 16.04263,11.08311 29.14243,26.06195 41.71164,40.44812 0.0601,-0.94691 0.12027,-1.89382 0.18222,-2.86942 0.10579,-1.23526 0.2115,-2.47053 0.32046,-3.74322 0.13997,-1.8412 0.13997,-1.8412 0.28276,-3.7196 0.82313,-3.2709 0.82313,-3.2709 5.64886,-6.29381 7.30378,0.817 7.30378,0.817 9.65143,3.02291 0.16021,2.78349 0.2104,5.57271 0.21364,8.36026 0.002,1.69314 0.005,3.38626 0.006,5.13069 -0.006,1.78276 -0.0125,3.56551 -0.0188,5.40229 0.006,1.78275 0.0125,3.56551 0.0188,5.40228 -0.002,1.69313 -0.005,3.38626 -0.006,5.13069 -0.002,1.56552 -0.003,3.13103 -0.006,4.74398 -0.20814,3.61628 -0.20814,3.61628 -1.81671,5.12774 -6.39047,0.38175 -12.80048,0.27996 -19.20234,0.28339 -1.8071,0.0185 -3.61419,0.0371 -5.47606,0.0561 -1.72415,0.003 -3.44831,0.006 -5.22472,0.009 -2.38542,0.009 -2.38542,0.009 -4.81903,0.0189 -3.88359,-0.36717 -3.88359,-0.36717 -7.10073,-3.39008 0.60321,-5.47905 0.60321,-5.47905 1.60856,-10.58021 7.96244,-0.74818 7.96244,-0.74818 16.08573,-1.51146 -1.5365,-1.55285 -3.073,-3.10569 -4.65606,-4.7056 -0.99608,-1.00718 -1.99217,-2.01437 -3.01843,-3.05207 -2.20863,-2.216 -4.43174,-4.41934 -6.66835,-6.61041 -4.94515,-4.85351 -9.76,-9.5909 -13.914,-15.06994 -5.54698,-6.68488 -9.34259,-10.62256 -18.24488,-12.2009 -11.83776,-1.14183 -23.65508,-1.11765 -35.53548,-0.68192 0,-3.49147 0,-6.98294 0,-10.58021 z"
     fill="#f4f5f7"
     id="path32"
     style="stroke-width:1.55926" />
  <path
     d="m 437.70579,510.87425 c 5.63,2.55059 5.63,2.55059 9.65143,6.04583 0.53084,2.49392 1.06166,4.98782 1.60857,7.55731 22.29481,0 44.58964,0 67.56005,0 0,3.99024 0,7.9805 0,12.09166 -22.29481,0 -44.58963,0 -67.56005,0 -0.53082,1.99512 -1.06165,3.99025 -1.60857,6.04584 -5.06736,4.27307 -8.85389,7.30037 -15.68358,8.02962 -8.59166,-0.77625 -13.13391,-4.70996 -18.80018,-10.58022 -3.36039,-6.69391 -3.25417,-11.58594 -0.90483,-18.60983 6.50877,-10.19302 13.7318,-11.94296 25.73716,-10.58021 z"
     fill="#4387c1"
     id="path34"
     style="stroke-width:1.55926" />
  <path
     d="m 841.45746,412.62945 c 7.019,3.35985 11.41354,6.72633 14.47715,13.60313 0.8799,6.49613 0.50674,9.69594 -2.815,15.49244 -4.1794,4.79977 -7.29695,8.18548 -13.91792,9.39939 -11.10209,0.12859 -11.10209,0.12859 -17.14763,-4.39268 -1.02848,-1.27812 -2.05697,-2.55625 -3.11662,-3.87311 -2.99137,-2.81079 -7.96064,-1.87554 -11.97004,-1.9897 -2.09946,-0.0633 -4.19894,-0.12663 -6.36203,-0.19188 -2.23377,-0.0601 -4.46755,-0.1202 -6.70134,-0.18007 -2.24008,-0.0653 -4.48014,-0.13119 -6.72018,-0.1978 -5.50102,-0.16096 -11.00216,-0.31515 -16.50358,-0.46347 -1.08023,-1.94847 -2.1508,-3.90168 -3.21714,-5.8569 -0.59719,-1.08719 -1.19436,-2.17438 -1.80964,-3.2945 -1.40751,-2.94027 -1.40751,-2.94027 -1.40751,-5.96318 17.51736,0 35.03472,0 53.08289,0 1.06166,-1.99513 2.12332,-3.99025 3.21715,-6.04584 6.20193,-6.1703 12.13075,-7.64742 20.91144,-6.04583 z"
     fill="#60b0df"
     id="path36"
     style="stroke-width:1.55926" />
  <path
     d="m 452.18294,467.04196 c 0.53083,1.49634 1.06166,2.99268 1.60858,4.53438 31.05348,0.74816 31.05348,0.74816 62.73432,1.51145 0,4.48903 0,8.97807 0,13.60313 -20.70233,0 -41.40466,0 -62.73432,0 -1.06167,2.4939 -2.12332,4.98781 -3.21715,7.55729 -5.86982,4.8469 -11.52248,5.31906 -19.05781,5.07165 -5.27196,-0.81812 -7.94725,-2.93616 -11.50507,-6.58311 -2.84436,-4.4544 -3.65658,-7.76428 -3.61928,-12.94186 -0.0125,-1.73307 -0.0125,-1.73307 -0.0251,-3.50116 0.42727,-3.20594 0.42727,-3.20594 3.64442,-7.74031 2.97209,-0.65352 2.97209,-0.65352 6.53482,-0.77345 1.28146,-0.0536 2.56292,-0.10711 3.8832,-0.16236 1.33951,-0.0341 2.67903,-0.0682 4.05913,-0.10332 1.33951,-0.0516 2.67902,-0.10331 4.05913,-0.15647 4.54629,-0.16934 9.08513,-0.31586 13.63516,-0.31586 z"
     fill="#3b7bb8"
     id="path38"
     style="stroke-width:1.55926" />
  <path
     d="m 217.33137,408.09508 c 4.94587,2.57328 8.69616,5.76208 11.26001,10.5802 22.29481,0.74818 22.29481,0.74818 45.04002,1.51146 0,4.48903 0,8.97807 0,13.60313 -1.32227,-0.002 -2.64455,-0.003 -4.0069,-0.006 -6.00481,0.0183 -12.00634,0.10543 -18.01042,0.1941 -2.08082,-0.003 -4.16162,-0.008 -6.30549,-0.0118 -10.46313,-0.17963 -10.46313,-0.17963 -19.83774,3.38751 -2.44435,2.68746 -2.44435,2.68746 -4.92233,7.01558 -5.95528,2.79787 -12.80274,2.21361 -19.30287,1.51146 -5.90486,-3.23655 -8.62432,-6.27388 -11.26001,-12.09167 -1.23908,-6.05645 -1.41254,-11.40866 2.04842,-16.78545 7.50701,-8.34412 13.63213,-10.60129 25.29731,-8.90934 z"
     fill="#3e7bb7"
     id="path40"
     style="stroke-width:1.55926" />
  <path
     d="m 214.11423,291.71276 c 4.91592,2.00833 7.28656,3.33932 10.02412,7.66505 2.69154,3.34359 2.69154,3.34359 7.52683,3.74027 1.86166,0.0317 3.72332,0.0634 5.64139,0.0959 2.01653,0.0488 4.03306,0.0974 6.1107,0.14761 3.16163,0.0321 3.16163,0.0321 6.38715,0.0649 2.14797,0.0425 4.29588,0.0878 6.44372,0.13579 5.25833,0.107 10.51551,0.18659 15.77469,0.24207 0,3.99025 0,7.9805 0,12.09167 -2.00869,0.009 -2.00869,0.009 -4.05795,0.0188 -4.97441,0.0408 -9.94663,0.115 -14.92014,0.21181 -3.2088,0.0522 -6.41822,0.0659 -9.62747,0.0793 -3.02479,0.0657 -3.02479,0.0657 -6.1107,0.13285 -1.86166,0.0238 -3.72332,0.0475 -5.64139,0.072 -4.99857,0.55006 -4.99857,0.55006 -7.464,4.6709 -0.67455,1.28142 -1.34909,2.56284 -2.04409,3.88308 -7.01215,4.34263 -12.58355,5.76992 -20.91144,4.53438 -5.25487,-3.20995 -10.03768,-6.77169 -12.86858,-12.09167 -0.84397,-7.3452 -1.21549,-13.2242 2.91553,-19.64897 7.57546,-6.50797 12.93703,-7.1087 22.82163,-6.04583 z"
     fill="#3d7bb7"
     id="path42"
     style="stroke-width:1.55926" />
  <path
     d="m 239.85139,359.7284 c 8.78829,4.42378 8.78829,4.42378 11.26001,9.06875 5.26896,0.71041 5.26896,0.71041 11.36054,0.94467 3.11343,0.1695 3.11343,0.1695 6.28976,0.34244 2.41051,0.11101 2.41051,0.11101 4.8697,0.22435 0,4.98782 0,9.97562 0,15.11459 -1.53235,0.0214 -3.0647,0.0428 -4.64349,0.0649 -12.66219,-0.20532 -12.66219,-0.20532 -23.20492,5.22515 -0.89577,1.24696 -1.79155,2.49391 -2.71445,3.77865 -2.76585,2.59886 -6.28012,1.95501 -10.05358,2.07825 -6.67881,-0.0489 -8.63702,-0.14411 -14.17555,-3.96757 -5.45321,-7.27276 -7.66027,-11.59018 -6.33375,-20.78257 7.26007,-10.56745 14.10348,-13.65745 27.34573,-12.09166 z"
     fill="#3a77b4"
     id="path44"
     style="stroke-width:1.55926" />
  <path
     d="m 513.30869,430.76695 c 1.06166,0 2.12332,0 3.21715,0 0,13.96588 0,27.93175 0,42.32084 -20.70233,0 -41.40466,0 -62.73432,0 -0.53083,-1.99512 -1.06167,-3.99025 -1.60858,-6.04583 1.51784,-0.42279 3.03568,-0.84559 4.59951,-1.2812 21.43974,-6.19472 40.87816,-14.63144 54.2579,-32.33104 0.74856,-0.87872 1.4971,-1.75743 2.26834,-2.66277 z"
     fill="#293b7c"
     id="path46"
     style="stroke-width:1.55926" />
  <path
     d="m 524.5687,139.05547 c 6.56031,3.17018 9.57259,7.40911 12.86858,13.60312 0,5.98537 0,11.97076 0,18.1375 -13.80156,0 -27.6031,0 -41.82289,0 0,-20.65659 0,-20.65659 6.43429,-27.20625 6.99353,-5.80232 13.52366,-5.97436 22.52002,-4.53437 z"
     fill="#3771af"
     id="path48"
     style="stroke-width:1.55926" />
  <path
     d="m 516.52584,139.05547 c 0,9.97562 0,19.95125 0,30.22916 -6.36995,0 -12.73989,0 -19.30287,0 -1.38511,-19.49339 -1.38511,-19.49339 3.82036,-25.31692 6.25513,-5.03785 6.67493,-4.91224 15.48251,-4.91224 z"
     fill="#273678"
     id="path50"
     style="stroke-width:1.55926" />
  <path
     d="m 515.62101,189.97271 c 5.73054,0.47234 5.73054,0.47234 8.84715,2.26719 2.29472,3.67819 2.2813,6.10317 1.70911,10.29681 -1.06165,0.99757 -2.12332,1.99513 -3.21715,3.02292 -0.39113,4.03483 -0.39113,4.03483 -0.20106,8.50196 0.0436,2.27374 0.0436,2.27374 0.088,4.59342 0.0373,1.16511 0.0747,2.33024 0.11307,3.53066 -4.77745,0 -9.55492,0 -14.47714,0 0.15344,-1.056 0.30688,-2.11202 0.46497,-3.20004 0.17832,-1.37554 0.35665,-2.75109 0.54039,-4.16831 0.27992,-2.05163 0.27992,-2.05163 0.5655,-4.14471 0.0125,-1.1885 0.0249,-2.37699 0.0377,-3.60152 -1.06165,-0.99756 -2.12331,-1.99513 -3.21714,-3.02292 -0.40214,-5.2901 -0.40214,-5.2901 0,-10.58021 3.21714,-3.02291 3.21714,-3.02291 8.74661,-3.49525 z"
     fill="#386aa6"
     id="path52"
     style="stroke-width:1.55926" />
  <path
     d="m 510.09155,190.44505 c 2.12331,0 4.24663,0 6.43429,0 0,9.97563 0,19.95125 0,30.22916 -2.12332,0 -4.24663,0 -6.43429,0 0.056,-1.42034 0.056,-1.42034 0.11307,-2.8694 0.029,-1.23526 0.058,-2.47053 0.088,-3.74322 0.0373,-1.22747 0.0747,-2.45494 0.11307,-3.7196 0.0296,-3.59348 0.0296,-3.59348 -3.53132,-6.29382 -0.40213,-5.2901 -0.40213,-5.2901 0,-10.58021 1.06167,-0.99756 2.12332,-1.99512 3.21715,-3.02291 z"
     fill="#2c407d"
     id="path54"
     style="stroke-width:1.55926" />
  <path
     d="m 349.23431,633.30239 c 4.24663,0 8.49326,0 12.86858,0 0,3.49147 0,6.98294 0,10.58021 -4.24664,0 -8.49326,0 -12.86858,0 0,-3.49147 0,-6.98293 0,-10.58021 z"
     fill="#f6f7f6"
     id="path56"
     style="stroke-width:1.55926" />
  <path
     d="m 497.22297,129.98672 c 1.06165,0.49877 2.12332,0.99756 3.21715,1.51146 -1.16327,1.17778 -1.16327,1.17778 -2.35003,2.37936 -8.29657,8.60707 -12.01132,14.72637 -13.73571,26.33834 -0.53082,0 -1.06165,0 -1.60856,0 -0.98712,-10.38827 1.2376,-15.99559 8.04286,-24.18333 3.71982,-3.77864 3.71982,-3.77864 6.43429,-6.04583 z"
     fill="#e2e4ef"
     id="path58"
     style="stroke-width:1.55926" />
  <path
     d="m 513.30869,205.55963 c 0.53083,0 1.06166,0 1.60857,0 0,4.98782 0,9.97563 0,15.11458 -1.59248,0 -3.18497,0 -4.82571,0 -0.40215,-10.0134 -0.40215,-10.0134 3.21714,-15.11458 z"
     fill="#2d3a73"
     id="path60"
     style="stroke-width:1.55926" />
  <path
     d="m 485.96296,142.07838 c 1.06166,1.49634 2.12332,2.9927 3.21715,4.53438 -1.59249,2.24451 -1.59249,2.24451 -3.21715,4.53437 -0.62756,3.00736 -1.17751,6.03102 -1.60858,9.06875 -0.53082,0 -1.06165,0 -1.60856,0 -0.45959,-12.95535 -0.45959,-12.95535 3.21714,-18.1375 z"
     fill="#cdd2db"
     id="path62"
     style="stroke-width:1.55926" />
</svg>
